<?xml version="1.0" encoding="UTF-8"?>
<svg id="Layer_1" data-name="Layer 1" xmlns="http://www.w3.org/2000/svg" viewBox="0 0 1000 1000">
  <defs>
    <style>
      .cls-1 {
        fill: none;
      }

      .cls-1, .cls-2 {
        opacity: .4;
      }

      .cls-3 {
        fill: #e8848a;
      }

      .cls-4 {
        fill: #e83524;
      }

      .cls-5 {
        fill: #fff;
        opacity: .3;
      }

      .cls-5, .cls-2 {
        isolation: isolate;
      }
    </style>
  </defs>
  <path class="cls-2" d="m787.06,395.35h-36.04v171.83h36.04v-171.83m-364.76,45.37h-36.01v90.45h-83.39s-7.79-.26-15.6-.26-28.96-12.7-31.11-30.87l-.51-3.7h-36.52v.19l.55,3.21v.23c2.51,13.89,14.61,60.77,66.09,67.2h136.52v-126.46m317.36-45.37h-36.01v135.82h-22.52l-.26-2.25c-.09-.33-.17-.66-.23-1v-.29c-20.95-94.12-100.38-102.89-118.82-103.63h-.26l-3.54-.16v35.76l3.6.48c55.69,5.02,76,47.85,82.43,67.52l1.03,3.54h-101.93v-36.04c0-37.73-29.49-68.89-67.18-71h-3.93v35.36l3.9.32c18.2,2.06,31.95,17.46,31.95,35.76v35.63h-74v36.01h212.57v16.4h36.01v-16.4h56.95v-171.83"/>
  <path class="cls-2" d="m315.42,440.88h-30.4v30.39h30.4v-30.39m46.46,0h-30.4v30.39h30.4v-30.39m0-49.77h-30.4v30.39h30.4v-30.39"/>
  <path class="cls-4" d="m141,336.57v139.1h34.65v-104.47h104.53v-34.63h-139.18"/>
  <path class="cls-3" d="m280.15,336.57h-139.15v68.55h2.38c10.81.16,21.59-.86,32.18-3.05v-30.86h46.88c10.58-10.11,24.06-18.56,55.63-18.56h2.09v-16.07"/>
  <path class="cls-4" d="m859,663.42v-138.91h-34.59v104.34h-104.4v34.57h138.99"/>
  <path class="cls-3" d="m859,524.52h-34.59v71.74c8.79-12.41,18.31-23.28,34.59-28.45v-43.28m-59.2,104.34h-79.66v27.3c42.21,0,64.6-12,79.79-27.3"/>
  <g class="cls-1">
    <path d="m343.7,611.46l17.98,51.96h-11.36l-3.79-11.23h-20.52l-3.9,11.23h-10.58l18.79-51.96h13.38Zm.29,32.15l-7.18-22.06-7.72,22.06h14.9Zm20.17-32.15h11.39v43.12h22.3v8.85h-33.69v-51.96Zm55.89,0h11.1v20.93h19.69v-20.93h11.26v51.96h-11.17v-22.77h-19.79v22.77h-11.1v-51.96Zm75.64,0l17.99,51.96h-11.2l-3.79-11.23h-20.52l-3.9,11.23h-10.63l18.79-51.96h13.26,0Zm.29,32.15l-7.18-22.06-7.72,22.06h14.9Zm20.05-32.06h20.46c1.55.08,3.09.26,4.61.55,1.75.34,3.47.82,5.14,1.41,1.81.65,3.52,1.55,5.08,2.67,1.58,1.16,2.97,2.56,4.12,4.15,1.15,1.57,2.07,3.29,2.73,5.11.69,1.8,1.19,3.64,1.52,5.54.29,1.86.44,3.74.45,5.63.06,3.56-.44,7.11-1.48,10.51-.89,2.82-2.27,5.47-4.06,7.81-1.58,2.12-3.59,3.88-5.89,5.18-2.2,1.22-4.58,2.09-7.05,2.57-.49.14-1,.24-1.51.29h-23.94l-.19-51.42Zm11.29,43.35h4.38c2.22.02,4.45-.18,6.63-.62,2.07-.41,3.98-1.46,5.44-2.99,1.11-1.1,2-2.4,2.64-3.83.64-1.35,1.12-2.78,1.41-4.24.27-1.3.44-2.63.51-3.95v-2.67c0-1.77-.16-3.54-.48-5.27-.28-1.64-.81-3.24-1.58-4.73-.74-1.43-1.75-2.7-2.96-3.76-1.27-1.07-2.76-1.85-4.38-2.28l-1.99-.39c-.8-.14-1.61-.24-2.41-.29h-7.4l.19,35.02h0Zm60.65-43.44l18.02,51.96h-11.33l-3.8-11.23h-20.52l-3.9,11.23h-10.39l18.76-51.96s13.16,0,13.16,0Zm.29,32.15l-7.17-22.06-7.69,22.06h14.86Zm22.1-23.57h-15.47v-8.58h42.12v8.58h-15.35v43.38h-11.3v-43.38Zm30.47-8.58h11.1v20.93h19.66v-20.93h11.26v51.96h-10.97v-22.77h-19.95v22.77h-11.1v-51.96Z"/>
  </g>
  <path class="cls-5" d="m753.18,459.95v-62.28h31.73v50.26c-7.75,3.21-18.24,7.36-31.72,12.02m-518.87,72.15c-6.05-9.93-10.22-20.9-12.29-32.35v-1.22h32.17l.26,1.83c1.87,14.66,15.67,26.3,25.74,30.74-14.86.45-30.09.78-45.68,1m153.92-6.49v-82.73h31.69v80.19c-10.33.9-20.91,1.77-31.72,2.54m121.78-12.19v-18.03c.08-19.43-14.54-35.79-33.87-37.88h-1.93v-31.25h1.74c36.52,2.06,65.08,32.28,65.05,68.84v13.89c-9.99,1.52-20.32,2.97-30.99,4.34m118.31-19.84c-16.06-20.87-40.32-33.82-66.6-35.56l-1.77-.23v-31.7h1.64c12.87.55,69.5,6.01,100.71,59.87-10.73,2.51-22.07,5.03-34.01,7.56m77.38-18.59v-77.17h31.69v67.52c-9.46,3.21-20.01,6.43-31.69,9.64m-418.65-16.52v-15.27h26.09v14.31c-8.56.35-17.28.68-26.09.96m46.46-1.9v-13.38h26.16v11.9c-8.58.54-17.28,1.03-26.09,1.48m-.06-45.89v-17.26h26.16v15.66c-8.58.51-17.28,1-26.09,1.45"/>
</svg>